<?xml version="1.0" encoding="UTF-8"?>
<svg id="Layer_1" data-name="Layer 1" xmlns="http://www.w3.org/2000/svg" viewBox="0 0 1393.38 503.81">
  <defs>
    <style>
      .cls-1, .cls-2, .cls-3 {
        fill: #305799;
      }

      .cls-2 {
        font-family: ErasITC-Light, 'Eras Light ITC';
        font-size: 80.21px;
        font-weight: 300;
      }

      .cls-4 {
        fill: #d6dfe8;
      }

      .cls-3 {
        font-family: LevenimMT, 'Levenim MT';
        font-size: 182.96px;
      }

      .cls-5 {
        fill: #b6d47a;
      }
    </style>
  </defs>
  <g>
    <text class="cls-3" transform="translate(463.4 283.68)"><tspan x="0" y="0">AGO TAC</tspan></text>
    <text class="cls-2" transform="translate(466.42 364.54)"><tspan x="0" y="0">Enioy every Sip!</tspan></text>
  </g>
  <g>
    <path class="cls-5" d="M229.11,93.02c-80.6,0-145.94,72.76-145.94,162.53s65.35,162.52,145.94,162.52c68.99,0,126.81-53.32,142.02-124.96,2.04-9.62,3.32-19.56,3.75-29.75.11-2.59.17-5.19.17-7.81,0-89.77-65.35-162.53-145.94-162.53ZM340.12,293.11c-14.45,53.02-58.68,91.61-111.01,91.61-64.05,0-115.99-57.83-115.99-129.17s51.93-129.17,115.99-129.17,115.99,57.83,115.99,129.17c0,2.62-.07,5.23-.21,7.81-.55,10.29-2.19,20.26-4.77,29.75Z"/>
    <path class="cls-4" d="M371.13,293.11c2.04-9.62,3.32-19.56,3.75-29.75.11-2.59.17-5.19.17-7.81,0-89.77-65.35-162.53-145.94-162.53v33.36c64.05,0,115.99,57.83,115.99,129.17,0,2.62-.07,5.23-.21,7.81-.55,10.29-2.19,20.26-4.77,29.75"/>
    <path class="cls-5" d="M374.89,263.36c-.43,10.19-1.71,20.13-3.75,29.75h-142.02v-29.75h145.78Z"/>
    <polygon class="cls-1" points="37.91 390.35 83.8 390.35 228.66 155.78 375.22 390.35 417 390.35 236.87 96.19 224.55 96.19 37.91 390.35"/>
    <polygon class="cls-1" points="251.1 263.36 239.2 293.11 141.15 293.11 151.62 265.74 159.71 263.36 251.1 263.36"/>
  </g>
</svg>